<?xml version="1.0" encoding="utf-8"?>
<svg viewBox="0 0 512 512" xmlns="http://www.w3.org/2000/svg">
  <path d="M 424.453 168.477 C 424.453 75.43 349.02 0 255.977 0 C 162.925 0 87.5 75.43 87.5 168.477 C 87.5 195.036 93.664 220.15 104.612 242.495 L 104.595 242.495 L 104.769 242.8 C 108.024 249.414 111.694 255.79 115.758 261.883 L 259.877 512 L 399.999 255.943 C 402.565 251.725 404.926 247.379 407.123 242.932 L 407.359 242.494 L 407.341 242.494 C 418.296 220.15 424.453 195.036 424.453 168.477 Z M 255.981 290.059 C 188.192 290.059 133.237 235.104 133.237 167.309 C 133.237 99.525 188.192 44.574 255.981 44.574 C 323.759 44.574 378.717 99.527 378.717 167.309 C 378.717 235.105 323.759 290.059 255.981 290.059 Z" style="fill: rgb(46, 71, 157);"/>
  <circle style="fill: rgb(46, 71, 157);" cx="256" cy="166.5" r="142.5"/>
  <circle style="stroke-width: 20px; fill: rgb(46, 71, 157); stroke: rgb(251, 251, 254);" cx="256" cy="170.6" r="140.748"/>
  <path id="path3843" d="M 251.254 118.475 L 255.384 114.338 C 258.871 110.846 259.126 107.6 256.12 104.589 C 252.695 101.158 247.727 102.695 241.246 109.186 L 234.447 115.998 L 210.483 112.598 L 215.35 107.722 C 218.591 104.478 218.713 101.342 215.718 98.342 C 212.282 94.902 208.316 95.454 203.776 100.001 L 193.858 109.934 C 166.982 105.951 152.046 105.449 149.04 108.46 C 147.639 109.863 146.698 111.952 146.207 114.718 C 145.707 117.472 146.117 119.499 147.393 120.779 C 148.682 122.069 153.733 123.668 162.545 125.573 C 171.358 127.478 186.398 132.463 207.631 140.566 C 228.874 148.655 241.031 154.237 244.088 157.298 C 246.052 159.264 244.19 163.279 238.486 169.36 C 219.276 188.848 206.333 203.656 199.646 213.775 C 197.806 213.898 192.294 213.191 183.126 211.666 C 173.934 210.139 168.118 209.575 165.674 210.018 C 163.221 210.447 160.162 212.485 156.482 216.172 C 154.519 218.139 153.487 219.725 153.375 220.943 C 155.758 223.328 167.258 229.054 187.89 238.067 C 195.546 257.391 201.253 268.902 204.984 272.639 C 206.2 272.526 207.784 271.491 209.747 269.526 C 213.428 265.837 215.473 262.809 215.903 260.411 C 216.342 258.025 215.779 252.199 214.246 242.94 C 212.712 233.683 212.017 228.132 212.141 226.29 C 222.056 219.407 232.587 210.519 243.771 199.56 C 254.945 188.635 261.582 182.623 263.655 181.588 C 265.742 180.543 267.356 180.605 268.512 181.763 C 271.517 184.773 277.069 196.928 285.178 218.24 C 293.307 239.551 298.292 254.625 300.196 263.452 C 302.095 272.279 303.691 277.339 304.98 278.627 C 306.259 279.909 308.262 280.299 310.991 279.776 C 313.719 279.252 315.787 278.29 317.187 276.887 C 320.191 273.877 319.722 258.947 315.807 232.085 L 325.723 222.151 C 330.263 217.605 330.805 213.621 327.38 210.19 C 324.372 207.179 321.255 207.312 318.014 210.558 L 313.147 215.431 L 309.754 191.431 L 316.553 184.619 C 323.035 178.128 324.567 173.151 321.143 169.719 C 318.137 166.708 314.886 166.953 311.399 170.447 L 307.27 174.584 L 304.243 138.803 L 325.55 117.462 C 343.727 99.254 349.789 87.118 343.727 81.046 C 341.345 78.658 335.722 80.359 326.867 86.154 C 318.035 91.952 311.839 96.622 308.292 100.174 L 286.987 121.517 L 251.254 118.475 Z" clip-rule="evenodd" fill-rule="evenodd" style="fill: rgb(251, 251, 254);"/>
</svg>