<?xml version="1.0" encoding="utf-8"?>
<svg viewBox="0 0 512 512" xmlns="http://www.w3.org/2000/svg" xmlns:bx="https://boxy-svg.com">
  <path d="M 414.794 168.606 C 414.794 81.01 343.782 10 256.19 10 C 168.589 10 97.2 80.243 97.2 167.837 C 97.2 192.84 103.003 216.483 113.308 237.519 L 113.677 238.285 L 113.842 238.574 C 116.906 244.799 120.361 250.803 124.186 256.538 L 259.86 492 L 391.772 250.947 C 360.008 309.579 396.41 242.884 398.48 238.697 L 398.702 238.285 L 398.299 238.669 C 408.998 216.866 414.794 193.607 414.794 168.606 Z M 256.194 283.064 C 192.376 283.064 140.64 231.328 140.64 167.505 C 140.64 103.694 192.376 51.963 256.194 51.963 C 320.001 51.963 371.739 103.696 371.739 167.505 C 371.739 231.328 320.001 283.064 256.194 283.064 Z" style="stroke: rgb(46, 71, 157); stroke-width: 20px; fill: rgb(46, 71, 157);" bx:origin="0.456879 0.5"/>
  <circle style="fill: rgb(255, 255, 255); stroke-width: 20px; stroke: rgb(46, 71, 157);" cx="256.031" cy="170.551" r="140.748"/>
  <g transform="matrix(0.595259, 0, 0, 0.595259, 103.61721, 3.283731)">
    <path d="M 419.048 224.974 L 411.538 219.083 L 411.583 219.02 L 256.014 97.042 L 256.014 97 L 255.974 97.021 L 255.95 97 L 255.95 97.042 L 100.381 219.019 L 100.445 219.082 L 92.94 224.973 L 88 228.834 L 88 258.091 L 115.355 258.091 L 115.355 415 L 396.634 415 L 396.634 258.092 L 423.988 258.092 L 423.988 228.835 L 419.048 224.974 Z M 360.48 378.959 L 151.482 378.959 L 151.482 224.909 L 255.973 142.986 L 360.48 224.909 L 360.48 378.959 Z" style="fill: rgb(46, 71, 157);"/>
    <path d="M 311.26 316.832 C 311.26 322.341 310.112 327.558 307.805 332.443 C 305.537 337.358 302.365 341.631 298.296 345.31 C 294.189 349.028 289.137 352.142 283.171 354.594 C 277.234 357.028 270.519 358.458 263.044 358.848 L 263.044 382.099 L 246.966 382.099 L 246.966 359.334 C 239.88 359.285 232.045 358.39 223.394 356.687 C 214.77 355.003 207.938 352.863 202.897 350.312 L 202.897 321.854 L 206.031 321.854 C 209.175 323.888 214.829 326.195 223.005 328.862 C 231.19 331.519 239.336 333.017 247.463 333.339 L 247.463 306.127 L 238.723 303.985 C 233.672 302.739 228.865 301.24 224.289 299.469 C 219.695 297.698 215.579 295.283 211.919 292.189 C 208.328 289.191 205.486 285.532 203.442 281.24 C 201.359 276.977 200.338 271.449 200.338 264.723 C 200.338 254.893 204.464 246.542 212.65 239.613 C 220.864 232.742 232.3 228.557 246.967 227.127 L 246.967 204.255 L 263.045 204.255 L 263.045 226.922 C 268.952 227.127 275.697 227.993 283.328 229.53 C 290.958 231.049 296.798 232.722 300.847 234.484 L 300.847 262.757 L 297.703 262.757 C 292.933 259.808 287.726 257.482 282.092 255.778 C 276.466 254.085 269.955 253.044 262.559 252.644 L 262.559 277.57 L 271.202 279.428 C 284.827 282.397 294.882 286.679 301.451 292.343 C 307.989 298.01 311.26 306.166 311.26 316.832 Z M 248.153 275.712 L 248.153 252.733 C 244.473 253.064 241.31 254.144 238.625 255.964 C 235.909 257.793 234.615 260.46 234.615 263.925 C 234.615 266.747 235.364 269.083 236.941 270.894 C 238.528 272.734 242.245 274.32 248.153 275.712 Z M 276.485 320.667 C 276.485 317.377 275.346 314.721 273.03 312.608 C 270.684 310.525 266.996 308.988 261.877 308.014 L 261.877 333.124 C 266.004 332.725 269.488 331.576 272.291 329.64 C 275.103 327.714 276.485 324.725 276.485 320.667 Z" style="fill: rgb(46, 71, 157);"/>
  </g>
</svg>