<?xml version="1.0" encoding="utf-8"?>
<svg viewBox="0 0 512 512" xmlns="http://www.w3.org/2000/svg">
  <path d="M 424.453 168.477 C 424.453 75.43 349.02 0 255.977 0 C 162.925 0 87.5 75.43 87.5 168.477 C 87.5 195.036 93.664 220.15 104.612 242.495 L 104.595 242.495 L 104.769 242.8 C 108.024 249.414 111.694 255.79 115.758 261.883 L 259.877 512 L 399.999 255.943 C 402.565 251.725 404.926 247.379 407.123 242.932 L 407.359 242.494 L 407.341 242.494 C 418.296 220.15 424.453 195.036 424.453 168.477 Z M 255.981 290.059 C 188.192 290.059 133.237 235.104 133.237 167.309 C 133.237 99.525 188.192 44.574 255.981 44.574 C 323.759 44.574 378.717 99.527 378.717 167.309 C 378.717 235.105 323.759 290.059 255.981 290.059 Z" style="fill: rgb(12, 114, 80);"/>
  <circle style="fill: rgb(46, 71, 157);" cx="256" cy="166.5" r="142.5"/>
  <circle style="stroke-width: 20px; fill: rgb(12, 114, 80); stroke: rgb(251, 251, 254);" cx="256" cy="170.6" r="140.748"/>
  <g transform="matrix(0.615635, 0, 0, 0.615635, 97.695244, 12.659437)">
    <path d="M 342.113 93.55 L 169.9 93.55 C 141.511 93.55 118.505 116.576 118.505 144.984 L 118.505 332.373 C 118.505 360.761 141.511 383.786 169.9 383.786 L 342.113 383.786 C 370.521 383.786 393.527 360.761 393.527 332.373 L 393.527 144.985 C 393.527 116.576 370.521 93.55 342.113 93.55 Z M 196.427 111.846 L 315.605 111.846 L 315.605 132.329 L 196.427 132.329 L 196.427 111.846 Z M 172.484 355.496 C 159.697 355.496 149.341 345.158 149.341 332.374 C 149.341 319.607 159.696 309.251 172.484 309.251 C 185.25 309.251 195.605 319.607 195.605 332.374 C 195.605 345.158 185.249 355.496 172.484 355.496 Z M 336.984 355.496 C 324.197 355.496 313.841 345.158 313.841 332.374 C 313.841 319.607 324.196 309.251 336.984 309.251 C 349.75 309.251 360.127 319.607 360.127 332.374 C 360.126 345.158 349.749 355.496 336.984 355.496 Z M 370.384 231.878 C 370.384 246.082 358.882 257.604 344.716 257.604 L 167.333 257.604 C 153.147 257.604 141.626 246.082 141.626 231.878 L 141.626 175.334 C 141.626 161.15 153.147 149.628 167.333 149.628 L 344.716 149.628 C 358.882 149.628 370.384 161.15 370.384 175.334 L 370.384 231.878 Z" style="fill: rgb(251, 251, 254);"/>
    <path d="M 192.253 410.173 C 192.253 414.727 187.249 418.418 181.079 418.418 L 162.319 418.418 C 156.149 418.418 151.147 414.727 151.147 410.173 L 151.147 369.002 C 151.147 364.449 156.149 360.759 162.319 360.759 L 181.079 360.759 C 187.249 360.759 192.253 364.449 192.253 369.002 L 192.253 410.173 Z" style="fill: rgb(251, 251, 254);"/>
    <path d="M 357.111 410.173 C 357.111 414.727 352.109 418.418 345.937 418.418 L 327.177 418.418 C 321.007 418.418 316.005 414.727 316.005 410.173 L 316.005 369.002 C 316.005 364.449 321.007 360.759 327.177 360.759 L 345.937 360.759 C 352.109 360.759 357.111 364.449 357.111 369.002 L 357.111 410.173 Z" style="fill: rgb(251, 251, 254);"/>
    <path d="M 101.9 220.272 C 101.9 224.986 105.722 228.807 110.435 228.807 L 110.435 228.807 C 115.148 228.807 118.97 224.986 118.97 220.272 L 118.97 164.722 C 118.97 160.008 115.148 156.187 110.435 156.187 L 110.435 156.187 C 105.722 156.187 101.9 160.008 101.9 164.722 L 101.9 220.272 Z" style="fill: rgb(251, 251, 254);"/>
    <path d="M 393.06 220.272 C 393.06 224.986 396.882 228.807 401.595 228.807 L 401.595 228.807 C 406.31 228.807 410.13 224.986 410.13 220.272 L 410.13 164.722 C 410.13 160.008 406.31 156.187 401.595 156.187 L 401.595 156.187 C 396.882 156.187 393.06 160.008 393.06 164.722 L 393.06 220.272 Z" style="fill: rgb(251, 251, 254);"/>
  </g>
</svg>