<?xml version="1.0" encoding="utf-8"?>
<svg height="512px" width="512px" version="1.1" id="Layer_1" xmlns="http://www.w3.org/2000/svg" xmlns:xlink="http://www.w3.org/1999/xlink" 
	 viewBox="0 0 512 512" xml:space="preserve">
  <path d="M 414.794 168.606 C 414.794 81.01 343.782 10 256.19 10 C 168.589 10 97.2 80.243 97.2 167.837 C 97.2 192.84 103.003 216.483 113.308 237.519 L 113.677 238.285 L 113.842 238.574 C 116.906 244.799 120.361 250.803 124.186 256.538 L 259.86 492 L 391.772 250.947 C 360.008 309.579 396.41 242.884 398.48 238.697 L 398.702 238.285 L 398.299 238.669 C 408.998 216.866 414.794 193.607 414.794 168.606 Z M 256.194 283.064 C 192.376 283.064 140.64 231.328 140.64 167.505 C 140.64 103.694 192.376 51.963 256.194 51.963 C 320.001 51.963 371.739 103.696 371.739 167.505 C 371.739 231.328 320.001 283.064 256.194 283.064 Z" style="stroke-width: 20px; fill: rgb(188, 214, 48); stroke: rgb(188, 214, 48);" bx:origin="0.456879 0.5"/>
  <circle style="fill: rgb(255, 255, 255); stroke-width: 20px; stroke: rgb(188, 214, 48);" cx="256.031" cy="170.551" r="140.748"/>
  <g transform="matrix(0.596691, 0, 0, 0.596691, 103.239578, 11.948236)">
    <rect x="223.775" y="355.754" width="64.856" height="64.837" style="fill: rgb(188, 214, 48);"/>
    <rect x="223.775" y="265.602" width="64.856" height="64.853" style="fill: rgb(188, 214, 48);"/>
    <rect x="223.775" y="175.522" width="64.856" height="64.836" style="fill: rgb(188, 214, 48);"/>
    <rect x="223.775" y="85.409" width="64.856" height="64.799" style="fill: rgb(188, 214, 48);"/>
    <rect x="313.909" y="355.754" width="64.816" height="64.837" style="fill: rgb(188, 214, 48);"/>
    <rect x="313.909" y="265.602" width="64.816" height="64.853" style="fill: rgb(188, 214, 48);"/>
    <rect x="313.909" y="175.522" width="64.816" height="64.836" style="fill: rgb(188, 214, 48);"/>
    <rect x="133.274" y="355.754" width="64.851" height="64.837" style="fill: rgb(188, 214, 48);"/>
    <rect x="133.274" y="265.602" width="64.851" height="64.853" style="fill: rgb(188, 214, 48);"/>
  </g>
</svg>
