<?xml version="1.0" encoding="UTF-8"?>
<svg viewBox="0 0 512 512" xmlns="http://www.w3.org/2000/svg">
<path d="m414.79 168.61c0-87.596-71.012-158.61-158.6-158.61-87.601 0-158.99 70.243-158.99 157.84 0 25.003 5.803 48.646 16.108 69.682l0.369 0.766 0.165 0.289c3.064 6.225 6.519 12.229 10.344 17.964l135.67 235.46 131.91-241.05c-31.764 58.632 4.638-8.063 6.708-12.25l0.222-0.412-0.403 0.384c10.699-21.803 16.495-45.062 16.495-70.063zm-158.6 114.46c-63.818 0-115.55-51.736-115.55-115.56 0-63.811 51.736-115.54 115.55-115.54 63.807 0 115.54 51.733 115.54 115.54 0 63.823-51.738 115.56-115.54 115.56z" fill="#be2126" stroke="#be2126" stroke-width="20px"/>
<circle cx="256.03" cy="170.55" r="140.75" fill="#fff" stroke="#be2126" stroke-width="20px"/>
<g transform="matrix(.65138 0 0 .65138 88.437 -9.3937)" fill="#be2126">
<path d="m166.26 409.52c3.615-46.41 42.396-82.955 89.74-82.955 47.336 0 86.117 36.545 89.732 82.955h33.594c-4.094-64.558-57.742-115.65-123.33-115.65-65.594 0-119.24 51.096-123.33 115.65h33.594z"/>
<rect x="188.04" y="151.85" width="135.92" height="32.698"/>
<rect x="239.65" y="102.48" width="32.697" height="215.72"/>
</g>
</svg>
