<?xml version="1.0" encoding="utf-8"?>
<svg viewBox="0 0 512 512" width="512px" height="512px" xmlns="http://www.w3.org/2000/svg">
  <defs/>
  <path d="M 414.794 168.606 C 414.794 81.01 343.782 10 256.19 10 C 168.589 10 97.2 80.243 97.2 167.837 C 97.2 192.84 103.003 216.483 113.308 237.519 L 113.677 238.285 L 113.842 238.574 C 116.906 244.799 120.361 250.803 124.186 256.538 L 259.86 492 L 391.772 250.947 C 360.008 309.579 396.41 242.884 398.48 238.697 L 398.702 238.285 L 398.299 238.669 C 408.998 216.866 414.794 193.607 414.794 168.606 Z M 256.194 283.064 C 192.376 283.064 140.64 231.328 140.64 167.505 C 140.64 103.694 192.376 51.963 256.194 51.963 C 320.001 51.963 371.739 103.696 371.739 167.505 C 371.739 231.328 320.001 283.064 256.194 283.064 Z" style="stroke-width: 20px; fill: rgb(12, 114, 80); stroke: rgb(12, 114, 80);"/>
  <circle style="stroke-width: 20px; stroke: rgb(12, 114, 80); fill: rgb(251, 251, 254);" cx="256.031" cy="170.551" r="140.748"/>
  <g transform="matrix(0.582941, 0, 0, 0.582941, 108.779442, 15.981533)">
    <circle cx="181.208" cy="189.369" r="98.89" style="fill: rgb(12, 114, 80);"/>
    <path d="M146.339,420.609c-6.378,0-11.548-5.172-11.548-11.549v-1.924c0-6.377,5.17-11.548,11.548-11.548h122.212 c6.379,0,11.548,5.171,11.548,11.548v1.924c0,6.377-5.169,11.549-11.548,11.549H146.339z" style="fill: rgb(12, 114, 80);"/>
    <path d="M197.096,397.488c0,8.1-6.566,14.666-14.666,14.666h-2.444c-8.099,0-14.665-6.566-14.665-14.666V242.28 c0-8.099,6.566-14.666,14.665-14.666h2.444c8.1,0,14.666,6.566,14.666,14.666V397.488z" style="fill: rgb(12, 114, 80);"/>
    <path d="M242.504,399.644v-65.095c0-8.099-6.566-14.665-14.664-14.665h-2.445c-8.099,0-14.665,6.566-14.665,14.665 v65.095H242.504z" style="fill: rgb(12, 114, 80);"/>
    <path d="M298.24,360.179v49.319c0,6.136,4.977,11.111,11.111,11.111h1.854c6.136,0,11.109-4.976,11.109-11.111 v-49.319H298.24z" style="fill: rgb(12, 114, 80);"/>
    <path d="M381.246,360.179v49.319c0,6.136,4.977,11.111,11.111,11.111h1.853c6.137,0,11.111-4.976,11.111-11.111 v-49.319H381.246z" style="fill: rgb(12, 114, 80);"/>
    <path d="M291.647,360.179c-6.379,0-11.549-5.172-11.549-11.549v-1.926c0-6.376,5.17-11.546,11.549-11.546h122.211 c6.377,0,11.548,5.17,11.548,11.546v1.926c0,6.377-5.171,11.549-11.548,11.549H291.647z" style="fill: rgb(12, 114, 80);"/>
  </g>
</svg>