<?xml version="1.0" encoding="utf-8"?>
<svg viewBox="0 0 512 512" xmlns="http://www.w3.org/2000/svg" xmlns:bx="https://boxy-svg.com">
  <path d="M 414.794 168.606 C 414.794 81.01 343.782 10 256.19 10 C 168.589 10 97.2 80.243 97.2 167.837 C 97.2 192.84 103.003 216.483 113.308 237.519 L 113.677 238.285 L 113.842 238.574 C 116.906 244.799 120.361 250.803 124.186 256.538 L 259.86 492 L 391.772 250.947 C 360.008 309.579 396.41 242.884 398.48 238.697 L 398.702 238.285 L 398.299 238.669 C 408.998 216.866 414.794 193.607 414.794 168.606 Z M 256.194 283.064 C 192.376 283.064 140.64 231.328 140.64 167.505 C 140.64 103.694 192.376 51.963 256.194 51.963 C 320.001 51.963 371.739 103.696 371.739 167.505 C 371.739 231.328 320.001 283.064 256.194 283.064 Z" style="stroke-width: 20px; stroke: rgb(240, 81, 35); fill: rgb(240, 81, 35);" bx:origin="0.456879 0.5"/>
  <circle style="stroke-width: 20px; fill: rgb(255, 255, 255); stroke: rgb(240, 81, 35);" cx="256.031" cy="170.551" r="140.748"/>
  <g transform="matrix(0.594652, 0, 0, 0.594652, 100.947617, 4.548538)">
    <path d="M168.989,345.438c0,2.724-2.229,4.952-4.953,4.952h-24.008c-2.734,0-4.963-2.229-4.963-4.952v-144.1 c0-2.726,2.229-4.963,4.963-4.963h24.008c2.725,0,4.953,2.237,4.953,4.963V345.438z" style="fill: rgb(240, 81, 35);"/>
    <path d="M111.671,401.573c-2.725,0-4.953-2.229-4.953-4.952v-24.009c0-2.734,2.229-4.963,4.953-4.963h288.383 c2.727,0,4.963,2.229,4.963,4.963v24.009c0,2.724-2.236,4.952-4.963,4.952H111.671z" style="fill: rgb(240, 81, 35);"/>
    <path d="M220.901,345.438c0,2.724-2.236,4.952-4.952,4.952h-24.018c-2.735,0-4.964-2.229-4.964-4.952v-144.1 c0-2.726,2.229-4.963,4.964-4.963h24.018c2.716,0,4.952,2.237,4.952,4.963V345.438z" style="fill: rgb(240, 81, 35);"/>
    <path d="M324.743,345.438c0,2.724-2.229,4.952-4.941,4.952h-24.02c-2.736,0-4.963-2.229-4.963-4.952v-144.1 c0-2.726,2.227-4.963,4.963-4.963h24.02c2.713,0,4.941,2.237,4.941,4.963V345.438z" style="fill: rgb(240, 81, 35);"/>
    <path d="M272.817,345.438c0,2.724-2.205,4.952-4.952,4.952H243.88c-2.747,0-4.963-2.229-4.963-4.952v-144.1 c0-2.726,2.216-4.963,4.963-4.963h23.985c2.747,0,4.952,2.237,4.952,4.963V345.438z" style="fill: rgb(240, 81, 35);"/>
    <path d="M376.646,346.845c0,2.735-2.183,4.951-4.931,4.951h-24.03c-2.714,0-4.95-2.216-4.95-4.951V202.756 c0-2.737,2.236-4.953,4.95-4.953h24.03c2.748,0,4.931,2.216,4.931,4.953V346.845z" style="fill: rgb(240, 81, 35);"/>
    <polygon points="428.132,178.156 91.801,178.156 255.867,110.722 &#9;" style="fill: rgb(240, 81, 35);"/>
  </g>
</svg>