<?xml version="1.0" encoding="utf-8"?>
<svg viewBox="0 0 512 512" xmlns="http://www.w3.org/2000/svg">
  <path d="M 424.453 168.477 C 424.453 75.43 349.02 0 255.977 0 C 162.925 0 87.5 75.43 87.5 168.477 C 87.5 195.036 93.664 220.15 104.612 242.495 L 104.595 242.495 L 104.769 242.8 C 108.024 249.414 111.694 255.79 115.758 261.883 L 259.877 512 L 399.999 255.943 C 402.565 251.725 404.926 247.379 407.123 242.932 L 407.359 242.494 L 407.341 242.494 C 418.296 220.15 424.453 195.036 424.453 168.477 Z M 255.981 290.059 C 188.192 290.059 133.237 235.104 133.237 167.309 C 133.237 99.525 188.192 44.574 255.981 44.574 C 323.759 44.574 378.717 99.527 378.717 167.309 C 378.717 235.105 323.759 290.059 255.981 290.059 Z" style="fill: rgb(46, 71, 157);"/>
  <circle style="fill: rgb(46, 71, 157);" cx="256" cy="166.5" r="142.5"/>
  <circle style="stroke-width: 20px; fill: rgb(46, 71, 157); stroke: rgb(251, 251, 254);" cx="256" cy="170.6" r="140.748"/>
  <g transform="matrix(0.575013, 0, 0, 0.575013, 108.933807, 9.348825)">
    <path d="M255.999,175.355c-96.047,0-173.908,25.017-173.908,55.876c0,30.859,77.861,55.875,173.908,55.875 c96.049,0,173.91-25.017,173.91-55.875C429.909,200.372,352.048,175.355,255.999,175.355z M256,268.328 c-67.972,0-123.074-17.703-123.074-39.542S188.028,189.243,256,189.243c67.973,0,123.075,17.704,123.075,39.543 S323.973,268.328,256,268.328z" style="fill: rgb(251, 251, 254);"/>
    <path d="M179.604,358.036c1.703,3.05,36.338,18.534,75.838,16.089c27.229-1.687,74.997-2.445,76.621-16.035 c13.067-29.951,56.9-71.772,79.551-92.114c-28.537,18.325-87.497,30.91-155.615,30.91c-69.008,0-128.629-12.915-156.728-31.631 C121.659,285.305,166.351,327.731,179.604,358.036z" style="fill: rgb(251, 251, 254);"/>
    <ellipse cx="256" cy="252.676" rx="66.746" ry="21.445" style="fill: rgb(251, 251, 254);"/>
  </g>
</svg>