<?xml version="1.0" encoding="utf-8"?>
<svg viewBox="0 0 512 512" xmlns="http://www.w3.org/2000/svg">
  <path d="M 424.453 168.477 C 424.453 75.43 349.02 0 255.977 0 C 162.925 0 87.5 75.43 87.5 168.477 C 87.5 195.036 93.664 220.15 104.612 242.495 L 104.595 242.495 L 104.769 242.8 C 108.024 249.414 111.694 255.79 115.758 261.883 L 259.877 512 L 399.999 255.943 C 402.565 251.725 404.926 247.379 407.123 242.932 L 407.359 242.494 L 407.341 242.494 C 418.296 220.15 424.453 195.036 424.453 168.477 Z M 255.981 290.059 C 188.192 290.059 133.237 235.104 133.237 167.309 C 133.237 99.525 188.192 44.574 255.981 44.574 C 323.759 44.574 378.717 99.527 378.717 167.309 C 378.717 235.105 323.759 290.059 255.981 290.059 Z" style="fill: rgb(74, 88, 18);"/>
  <circle style="fill: rgb(46, 71, 157);" cx="256" cy="166.5" r="142.5"/>
  <circle style="stroke-width: 20px; fill: rgb(74, 88, 18); stroke: rgb(251, 251, 254);" cx="256" cy="170.6" r="140.748"/>
  <g transform="matrix(0.600463, 0, 0, 0.600463, 102.436165, 11.468712)">
    <path d="M 141.129 267.167 L 141.129 402.136 C 141.223 407.282 144.516 410.505 147.195 412.025 C 150.027 413.66 153.078 414.351 156.336 414.374 L 217.512 414.374 C 219.633 414.374 221.68 413.533 223.188 412.025 C 224.661 410.541 225.524 408.48 225.524 406.384 L 225.524 341.445 L 286.469 341.456 L 286.469 406.385 C 286.469 408.481 287.332 410.541 288.821 412.026 C 290.317 413.534 292.364 414.375 294.485 414.375 L 355.649 414.375 C 358.919 414.353 361.969 413.661 364.813 412.026 C 367.493 410.506 370.786 407.272 370.868 402.137 L 370.868 267.167 L 256.008 162.073 L 141.129 267.167 Z" style="fill: rgb(251, 251, 254);"/>
    <path d="M 415.555 229.948 L 270.539 97.282 C 262.297 89.742 249.711 89.742 241.457 97.282 L 96.461 229.948 C 87.68 237.983 87.09 251.591 95.094 260.375 L 95.106 260.375 C 99.364 265.015 105.153 267.374 111.004 267.374 C 116.195 267.374 121.399 265.52 125.543 261.722 L 256.008 142.365 L 386.464 261.722 C 395.238 269.757 408.867 269.148 416.891 260.375 C 424.914 251.591 424.316 237.983 415.555 229.948 Z" style="fill: rgb(251, 251, 254);"/>
    <path d="M 155.929 110.626 L 155.02 110.626 C 152.246 110.626 149.997 112.875 149.997 115.649 L 149.997 119.422 C 146.975 120.642 117.383 132.32 99.604 128.986 C 81.314 125.556 145.048 138.112 149.997 158.311 L 149.997 189.98 C 149.997 192.754 152.246 197.738 155.02 197.738 L 155.929 195.004 C 158.703 195.004 160.952 192.755 160.952 189.981 L 160.952 115.65 C 160.952 112.875 158.703 110.626 155.929 110.626 Z" style="fill: rgb(251, 251, 254);"/>
  </g>
</svg>