<?xml version="1.0" encoding="utf-8"?>
<svg viewBox="0 0 512 512" xmlns="http://www.w3.org/2000/svg" xmlns:bx="https://boxy-svg.com">
  <path d="M 414.794 168.606 C 414.794 81.01 343.782 10 256.19 10 C 168.589 10 97.2 80.243 97.2 167.837 C 97.2 192.84 103.003 216.483 113.308 237.519 L 113.677 238.285 L 113.842 238.574 C 116.906 244.799 120.361 250.803 124.186 256.538 L 259.86 492 L 391.772 250.947 C 360.008 309.579 396.41 242.884 398.48 238.697 L 398.702 238.285 L 398.299 238.669 C 408.998 216.866 414.794 193.607 414.794 168.606 Z M 256.194 283.064 C 192.376 283.064 140.64 231.328 140.64 167.505 C 140.64 103.694 192.376 51.963 256.194 51.963 C 320.001 51.963 371.739 103.696 371.739 167.505 C 371.739 231.328 320.001 283.064 256.194 283.064 Z" style="stroke-width: 20px; stroke: rgb(190, 33, 38); fill: rgb(190, 33, 38);" bx:origin="0.456879 0.5"/>
  <circle style="stroke-width: 20px; stroke: rgb(190, 33, 38); fill: rgb(251, 251, 254);" cx="256.031" cy="170.551" r="140.748"/>
  <g transform="matrix(0.595261, 0, 0, 0.595261, 106.283882, 7.71708)">
    <path d="M 251.846 162.073 L 251.845 162.075 L 251.844 162.073 L 134.098 269.79 L 134.098 370.034 L 134.102 370.03 L 134.102 408.126 C 134.204 413.388 137.567 416.698 140.325 418.278 C 143.237 419.95 146.376 420.657 149.708 420.698 L 156.964 420.698 L 198.722 420.698 L 212.398 420.698 L 212.412 420.698 L 212.471 420.698 L 291.223 420.698 L 291.282 420.698 L 291.296 420.698 L 304.972 420.698 L 346.73 420.698 L 353.986 420.698 C 357.318 420.657 360.457 419.95 363.369 418.278 C 366.127 416.698 369.49 413.387 369.592 408.126 L 369.592 370.03 L 369.596 370.034 L 369.596 269.79 L 251.846 162.073 Z" style="fill: rgb(190, 33, 38);"/>
    <path d="M 412.788 228.346 L 266.502 94.52 C 258.188 86.913 245.504 86.913 237.199 94.52 L 90.9 228.346 C 82.049 236.425 81.462 250.171 89.541 259.011 L 89.551 259.032 C 93.837 263.704 99.697 266.094 105.58 266.094 C 110.829 266.094 116.059 264.208 120.236 260.404 L 251.845 139.993 L 383.451 260.404 C 392.302 268.484 406.051 267.883 414.139 259.033 C 422.239 250.171 421.629 236.435 412.788 228.346 Z" style="fill: rgb(190, 33, 38);"/>
  </g>
  <g transform="matrix(0.595261, 0, 0, 0.595261, 106.283882, 7.71708)">
    <path d="M267.718,395.721c0,8.092-6.561,14.652-14.651,14.652h-2.443c-8.091,0-14.651-6.561-14.651-14.652V240.652 c0-8.092,6.561-14.652,14.651-14.652h2.443c8.091,0,14.651,6.561,14.651,14.652V395.721z" style="fill: rgb(255, 255, 255);"/>
    <path d="M174.312,334.061c-8.093,0-14.653-6.561-14.653-14.652v-2.442c0-8.093,6.561-14.653,14.653-14.653h155.067 c8.092,0,14.652,6.561,14.652,14.653v2.442c0,8.092-6.561,14.652-14.652,14.652H174.312z" style="fill: rgb(255, 255, 255);"/>
  </g>
</svg>