<?xml version="1.0" encoding="utf-8"?>
<svg viewBox="0 0 512 512" xmlns="http://www.w3.org/2000/svg">
  <path d="M 424.453 168.477 C 424.453 75.43 349.02 0 255.977 0 C 162.925 0 87.5 75.43 87.5 168.477 C 87.5 195.036 93.664 220.15 104.612 242.495 L 104.595 242.495 L 104.769 242.8 C 108.024 249.414 111.694 255.79 115.758 261.883 L 259.877 512 L 399.999 255.943 C 402.565 251.725 404.926 247.379 407.123 242.932 L 407.359 242.494 L 407.341 242.494 C 418.296 220.15 424.453 195.036 424.453 168.477 Z M 255.981 290.059 C 188.192 290.059 133.237 235.104 133.237 167.309 C 133.237 99.525 188.192 44.574 255.981 44.574 C 323.759 44.574 378.717 99.527 378.717 167.309 C 378.717 235.105 323.759 290.059 255.981 290.059 Z" style=""/>
  <circle style="fill: rgb(46, 71, 157);" cx="256" cy="166.5" r="142.5"/>
  <circle style="stroke-width: 20px; stroke: rgb(255, 255, 255);" cx="256" cy="170.6" r="140.748"/>
  <g transform="matrix(0.595262, 0, 0, 0.595262, 103.672089, 6.993573)">
    <path fill="#FFFFFF" d="M 416.944 228.346 L 270.658 94.52 C 262.344 86.913 249.66 86.913 241.355 94.52 L 95.057 228.346 C 86.206 236.425 85.619 250.171 93.698 259.011 L 93.708 259.032 C 97.994 263.704 103.854 266.094 109.737 266.094 C 114.986 266.094 120.216 264.208 124.393 260.404 L 256.002 139.993 L 387.608 260.404 C 396.459 268.484 410.208 267.883 418.296 259.033 C 426.396 250.171 425.785 236.435 416.944 228.346 Z"/>
    <path fill="#FFFFFF" d="M 256.002 162.073 L 256.001 162.075 L 256 162.073 L 138.254 269.79 L 138.254 370.034 L 138.258 370.03 L 138.258 408.126 C 138.36 413.388 141.723 416.698 144.481 418.278 C 147.393 419.95 150.532 420.657 153.864 420.698 L 161.12 420.698 L 193.867 420.698 L 193.867 300.539 L 194.107 300.539 C 196.788 268.872 223.324 244.001 255.685 244.001 C 288.046 244.001 314.582 268.872 317.263 300.539 L 318.134 300.539 L 318.134 420.698 L 350.883 420.698 L 358.139 420.698 C 361.471 420.657 364.61 419.95 367.522 418.278 C 370.28 416.698 373.643 413.387 373.745 408.126 L 373.745 370.03 L 373.749 370.034 L 373.749 269.79 L 256.002 162.073 Z"/>
    <g>
      <path fill="#FFFFFF" d="M269,410c0,6.627-5.373,12-12,12h-2c-6.627,0-12-5.373-12-12V283c0-6.627,5.373-12,12-12h2 c6.627,0,12,5.373,12,12V410z"/>
      <path fill="#FFFFFF" d="M224.25,333.5c-6.627,0-12-5.373-12-12v-2c0-6.627,5.373-12,12-12h63.5c6.627,0,12,5.373,12,12v2 c0,6.627-5.373,12-12,12H224.25z"/>
    </g>
  </g>
</svg>