<?xml version="1.0" encoding="utf-8"?>
<svg viewBox="0 0 512 512" width="512px" height="512px" xmlns="http://www.w3.org/2000/svg">
  <defs/>
  <path d="M 424.453 168.477 C 424.453 75.43 349.02 0 255.977 0 C 162.925 0 87.5 75.43 87.5 168.477 C 87.5 195.036 93.664 220.15 104.612 242.495 L 104.595 242.495 L 104.769 242.8 C 108.024 249.414 111.694 255.79 115.758 261.883 L 259.877 512 L 399.999 255.943 C 402.565 251.725 404.926 247.379 407.123 242.932 L 407.359 242.494 L 407.341 242.494 C 418.296 220.15 424.453 195.036 424.453 168.477 Z M 255.981 290.059 C 188.192 290.059 133.237 235.104 133.237 167.309 C 133.237 99.525 188.192 44.574 255.981 44.574 C 323.759 44.574 378.717 99.527 378.717 167.309 C 378.717 235.105 323.759 290.059 255.981 290.059 Z" style="fill: rgb(240, 81, 35);"/>
  <circle style="fill: rgb(46, 71, 157);" cx="256" cy="166.5" r="142.5"/>
  <circle style="stroke-width: 20px; fill: rgb(240, 81, 35); stroke: rgb(251, 251, 254);" cx="256" cy="170.6" r="140.748"/>
  <g transform="matrix(0.562738, 0, 0, 0.562738, 114.239365, 20.925423)">
    <path d="M259.961,360.909c0,12.565-10.174,22.74-22.738,22.74c-12.547,0-22.721-10.175-22.721-22.74 c0-12.535,10.174-22.719,22.721-22.719C249.787,338.19,259.961,348.374,259.961,360.909z" style="fill: rgb(251, 251, 254);"/>
    <path d="M380.572,360.909c0,12.565-10.164,22.74-22.729,22.74c-12.547,0-22.71-10.175-22.71-22.74 c0-12.535,10.163-22.719,22.71-22.719C370.408,338.19,380.572,348.374,380.572,360.909z" style="fill: rgb(251, 251, 254);"/>
    <path d="M201.898,333.883l-12.072-7.972l-50.785-119.634H85.977c-7.24,0-13.107-5.867-13.107-13.117 c0-7.231,5.867-13.11,13.107-13.11h61.729l12.073,7.993l50.813,119.632h164.804c7.253,0,13.1,5.868,13.1,13.109 c0,7.231-5.847,13.099-13.1,13.099H201.898z" style="fill: rgb(251, 251, 254);"/>
    <path d="M177.577,182.017l31.175,77.681c8.002,19.944,32.124,36.254,53.601,36.254h78.53 c21.474,0,45.598-16.31,53.597-36.244l31.196-77.701c7.982-19.935-3.042-36.243-24.537-36.243h-60.454c-21.495,0-56.64,0-78.136,0 h-60.453C180.619,145.764,169.576,162.072,177.577,182.017z M232.047,258.117c0-4.088,2.142-7.379,4.799-7.379h132.723 c2.647,0,4.801,3.291,4.801,7.379c0,4.08-2.153,7.39-4.801,7.39H236.846C234.188,265.507,232.047,262.197,232.047,258.117z M213.376,216.629c0-4.069,2.707-7.38,6.044-7.38h167.584c3.348,0,6.055,3.311,6.055,7.38c0,4.089-2.707,7.388-6.055,7.388H219.42 C216.083,224.018,213.376,220.719,213.376,216.629z M199.941,175.142c0-4.09,3.11-7.38,6.955-7.38H399.52 c3.832,0,6.963,3.29,6.963,7.38c0,4.089-3.131,7.388-6.963,7.388H206.896C203.052,182.53,199.941,179.231,199.941,175.142z" style="fill: rgb(251, 251, 254);"/>
  </g>
</svg>