<?xml version="1.0" encoding="utf-8"?>
<svg width="512px" height="512px" viewBox="0 0 512 512" xmlns="http://www.w3.org/2000/svg">
  <defs/>
  <path d="M 424.453 168.477 C 424.453 75.43 349.02 0 255.977 0 C 162.925 0 87.5 75.43 87.5 168.477 C 87.5 195.036 93.664 220.15 104.612 242.495 L 104.595 242.495 L 104.769 242.8 C 108.024 249.414 111.694 255.79 115.758 261.883 L 259.877 512 L 399.999 255.943 C 402.565 251.725 404.926 247.379 407.123 242.932 L 407.359 242.494 L 407.341 242.494 C 418.296 220.15 424.453 195.036 424.453 168.477 Z M 255.981 290.059 C 188.192 290.059 133.237 235.104 133.237 167.309 C 133.237 99.525 188.192 44.574 255.981 44.574 C 323.759 44.574 378.717 99.527 378.717 167.309 C 378.717 235.105 323.759 290.059 255.981 290.059 Z" style="fill: rgb(111, 25, 25);"/>
  <circle style="fill: rgb(46, 71, 157);" cx="256" cy="166.5" r="142.5"/>
  <circle style="stroke-width: 20px; stroke: rgb(251, 251, 254); fill: rgb(111, 25, 25);" cx="256" cy="170.6" r="140.748"/>
  <title/>
  <g id="Buckingham_palace" transform="matrix(0.421083, 0, 0, 0.376002, 146.986359, 49.006962)" style="">
    <rect height="95.92" width="32" x="240" y="248.05" style="fill: rgb(255, 255, 255);"/>
    <path d="M8,488.05v16H504V360.13H8Zm440-112h24v16H448Zm-40,0h24v16H408Zm-8,60a20,20,0,1,1,40,0v52H400Zm-32-60h24v16H368Zm-144,32a32,32,0,1,1,64,0v80H224Zm-104-32h24v16H120Zm-40,0h24v16H80Zm-8,60a20,20,0,1,1,40,0v52H72Zm-32-60H64v16H40Z" style="fill: rgb(255, 255, 255);"/>
    <path d="M504,184.05v-16H352l-96-40-96,40H8v16H24v16H8V344H224V248.05H176v-16H336v16H288V344H504V200.05H488v-16Zm-440,144H40v-32l12-8,12,8Zm0-56H40v-32l12-8,12,8Zm0-72H40v-16H64Zm40,128H80v-32l12-8,12,8Zm0-56H80v-32l12-8,12,8Zm0-72H80v-16h24Zm40,128H120v-32l12-8,12,8Zm0-56H120v-32l12-8,12,8Zm0-72H120v-16h24Zm208,0H336v16H176v-16H160v-16h16v16H336v-16h16Zm40,128H368v-32l12-8,12,8Zm0-56H368v-32l12-8,12,8Zm0-72H368v-16h24Zm40,128H408v-32l12-8,12,8Zm0-56H408v-32l12-8,12,8Zm0-72H408v-16h24Zm40,128H448v-32l12-8,12,8Zm0-56H448v-32l12-8,12,8Zm0-72H448v-16h24Z" style="fill: rgb(255, 255, 255);"/>
    <polygon points="232 73.05 256 73.05 296 73.05 296 49.05 296 25.05 256 25.05 216 25.05 216 49.05 216 73.05 216 144.38 232 144.38 232 73.05" style="fill: rgb(255, 255, 255);"/>
  </g>
</svg>