<?xml version="1.0" encoding="utf-8"?>
<svg width="512px" height="512px" viewBox="0 0 512 512" xmlns="http://www.w3.org/2000/svg">
  <defs/>
  <path d="M 424.453 168.477 C 424.453 75.43 349.02 0 255.977 0 C 162.925 0 87.5 75.43 87.5 168.477 C 87.5 195.036 93.664 220.15 104.612 242.495 L 104.595 242.495 L 104.769 242.8 C 108.024 249.414 111.694 255.79 115.758 261.883 L 259.877 512 L 399.999 255.943 C 402.565 251.725 404.926 247.379 407.123 242.932 L 407.359 242.494 L 407.341 242.494 C 418.296 220.15 424.453 195.036 424.453 168.477 Z M 255.981 290.059 C 188.192 290.059 133.237 235.104 133.237 167.309 C 133.237 99.525 188.192 44.574 255.981 44.574 C 323.759 44.574 378.717 99.527 378.717 167.309 C 378.717 235.105 323.759 290.059 255.981 290.059 Z" style="fill: rgb(131, 129, 146);"/>
  <circle style="fill: rgb(46, 71, 157);" cx="256" cy="166.5" r="142.5"/>
  <circle style="stroke-width: 20px; stroke: rgb(251, 251, 254); fill: rgb(131, 129, 146);" cx="256" cy="170.6" r="140.748"/>
  <g transform="matrix(0.449666, 0, 0, 0.419429, 144.422668, 40.730003)" style="">
    <g>
      <path style="fill: rgb(255, 255, 255);" d="M105,209.5v2c0,9.333,3.667,14,11,14h28v164h41v-143h41v143h40v-143h41v143h41v-164h28&#10;&#9;&#9;&#9;c3.333,0,6.333-1.5,9-4.5s4-6.167,4-9.5c0-4.667-1.667-8.333-5-11v-1h1l-129-67v-19c6.667,3.333,17.333,3.833,32,1.5&#10;&#9;&#9;&#9;s28-1.5,40,2.5v-43c-10.667-4-24-4.667-40-2s-26.667,2-32-2v-2c0-4.667-3.333-7-10-7s-10,2.333-10,7v64l-129,67h1h2h3&#10;&#9;&#9;&#9;C107,200.833,104.333,204.167,105,209.5z"/>
      <polygon style="fill: rgb(255, 255, 255);" points="133,399.5 103,430.5 389,430.5 359,399.5 &#9;&#9;"/>
      <path style="fill: rgb(255, 255, 255);" d="M359,236.5v153h9l4,6l27,25l10,10h83v-194H359z M420,358.5h-31v-30h31V358.5z M420,297.5h-31v-31&#10;&#9;&#9;&#9;h31V297.5z M461,358.5h-20v-30h20V358.5z M461,297.5h-20v-31h20V297.5z"/>
      <path style="fill: rgb(255, 255, 255);" d="M124,389.5h9v-153H0v194h83l10-9l27-26L124,389.5z M51,358.5H31v-30h20V358.5z M51,297.5H31v-31h20&#10;&#9;&#9;&#9;V297.5z M103,358.5H72v-30h31V358.5z M103,297.5H72v-31h31V297.5z"/>
    </g>
  </g>
  <g transform="matrix(0.449666, 0, 0, 0.419429, 144.422668, 40.730003)" style=""/>
  <g transform="matrix(0.449666, 0, 0, 0.419429, 144.422668, 40.730003)" style=""/>
  <g transform="matrix(0.449666, 0, 0, 0.419429, 144.422668, 40.730003)" style=""/>
  <g transform="matrix(0.449666, 0, 0, 0.419429, 144.422668, 40.730003)" style=""/>
  <g transform="matrix(0.449666, 0, 0, 0.419429, 144.422668, 40.730003)" style=""/>
  <g transform="matrix(0.449666, 0, 0, 0.419429, 144.422668, 40.730003)" style=""/>
  <g transform="matrix(0.449666, 0, 0, 0.419429, 144.422668, 40.730003)" style=""/>
  <g transform="matrix(0.449666, 0, 0, 0.419429, 144.422668, 40.730003)" style=""/>
  <g transform="matrix(0.449666, 0, 0, 0.419429, 144.422668, 40.730003)" style=""/>
  <g transform="matrix(0.449666, 0, 0, 0.419429, 144.422668, 40.730003)" style=""/>
  <g transform="matrix(0.449666, 0, 0, 0.419429, 144.422668, 40.730003)" style=""/>
  <g transform="matrix(0.449666, 0, 0, 0.419429, 144.422668, 40.730003)" style=""/>
  <g transform="matrix(0.449666, 0, 0, 0.419429, 144.422668, 40.730003)" style=""/>
  <g transform="matrix(0.449666, 0, 0, 0.419429, 144.422668, 40.730003)" style=""/>
  <g transform="matrix(0.449666, 0, 0, 0.419429, 144.422668, 40.730003)" style=""/>
</svg>