<?xml version="1.0" encoding="utf-8"?>
<svg viewBox="0 0 512 512" width="512px" height="512px" xmlns="http://www.w3.org/2000/svg">
  <defs/>
  <path d="M 424.453 168.477 C 424.453 75.43 349.02 0 255.977 0 C 162.925 0 87.5 75.43 87.5 168.477 C 87.5 195.036 93.664 220.15 104.612 242.495 L 104.595 242.495 L 104.769 242.8 C 108.024 249.414 111.694 255.79 115.758 261.883 L 259.877 512 L 399.999 255.943 C 402.565 251.725 404.926 247.379 407.123 242.932 L 407.359 242.494 L 407.341 242.494 C 418.296 220.15 424.453 195.036 424.453 168.477 Z M 255.981 290.059 C 188.192 290.059 133.237 235.104 133.237 167.309 C 133.237 99.525 188.192 44.574 255.981 44.574 C 323.759 44.574 378.717 99.527 378.717 167.309 C 378.717 235.105 323.759 290.059 255.981 290.059 Z" style="fill: rgb(190, 33, 38);"/>
  <circle style="fill: rgb(46, 71, 157);" cx="256" cy="166.5" r="142.5"/>
  <circle style="stroke-width: 20px; fill: rgb(190, 33, 38); stroke: rgb(251, 251, 254);" cx="256" cy="170.6" r="140.748"/>
  <g transform="matrix(0.610758, 0, 0, 0.610758, 92.51416, 6.06861)">
    <path d="M 151.261 428.985 C 144.883 428.985 139.713 423.813 139.713 417.436 L 139.713 415.512 C 139.713 409.135 144.883 403.964 151.261 403.964 L 273.473 403.964 C 279.852 403.964 285.021 409.135 285.021 415.512 L 285.021 417.436 C 285.021 423.813 279.852 428.985 273.473 428.985 L 151.261 428.985 Z" style="fill: rgb(251, 251, 254);"/>
    <path d="M 202.018 405.864 C 202.018 413.964 195.452 420.53 187.352 420.53 L 184.908 420.53 C 176.809 420.53 170.243 413.964 170.243 405.864 L 170.243 116.188 C 170.243 108.089 176.809 101.523 184.908 101.523 L 187.352 101.523 C 195.452 101.523 202.018 108.089 202.018 116.188 L 202.018 405.864 Z" style="fill: rgb(251, 251, 254);"/>
    <path d="M 209.799 122.149 L 209.799 237.185 C 279.723 206.363 318.876 256.873 392.184 230.186 C 392.184 191.844 392.184 153.491 392.184 115.159 C 318.876 141.835 279.74 91.327 209.799 122.149 Z" style="fill: rgb(251, 251, 254);"/>
  </g>
</svg>